<svg xmlns="http://www.w3.org/2000/svg" width="256" height="256"><path fill-opacity=".016" d="M0 128.004v128.004l128.25-.254 128.25-.254.254-127.75L257.008 0H0v128.004m.485.496c0 70.4.119 99.053.265 63.672.146-35.38.146-92.98 0-128C.604 29.153.485 58.1.485 128.5" fill="#1976D2" fill-rule="evenodd"/><path fill-opacity=".287" d="M125 70c0 38.5.202 70 .45 70 .247 0 8.572-11.978 18.5-26.618L162 86.764V0h-37v70m86-29.901a28655.063 28655.063 0 0 1-35.438 18.081l-7.939 4.032 8.939 3.849c4.916 2.117 8.823 4.326 8.683 4.908-.14.583-14.732 21.19-32.427 45.795a64602.342 64602.342 0 0 0-44.164 61.471l-11.991 16.734-4.354-7.639c-12.434-21.815-31.703-42.183-54.024-57.104C29.428 124.306 14.932 116 13.457 116c-.439 0 4.828 5.737 11.705 12.75 6.876 7.012 15.895 17.317 20.042 22.9 20.357 27.402 36.479 61.624 44.801 95.1 1.264 5.088 2.568 9.225 2.897 9.194.329-.03 14.773-17.439 32.098-38.687 17.325-21.247 44.1-54.014 59.5-72.815 15.4-18.801 31.487-38.487 35.749-43.745l7.748-9.562 7.502 3.928L243 98.991l-.027-4.746c-.014-2.61-.677-18.47-1.473-35.245s-1.459-31.062-1.473-31.75c-.015-.687-.365-1.238-.777-1.224-.412.014-13.125 6.347-28.25 14.073M77 94.784v55.785l2.96 1.748c3.925 2.319 9.453 9.176 13.494 16.741l3.28 6.139 9.694-13.848 9.694-13.849-.535-50c-.295-27.5-.548-51.913-.562-54.25L115 39H77v55.784m-44-2.832v22.997l3.25 1.647c5.159 2.614 17.614 11.224 25.421 17.573 3.945 3.207 7.438 5.831 7.763 5.831.325 0 .473-15.862.329-35.25L69.5 69.5l-18.25-.273L33 68.955v22.997" fill="#1976D2" fill-rule="evenodd"/><path fill-opacity=".547" d="M125.488 1.02c-.681 1.101-.424 105.616.309 125.666l.445 12.187 3.194-4.687a24951.08 24951.08 0 0 0 17.879-26.352L162 86.168V0h-17.941c-11.112 0-18.181.388-18.571 1.02m78.262 43.227C185.188 53.712 170 61.739 170 62.087c0 .347 3.653 2.157 8.117 4.022 4.464 1.865 8.047 3.841 7.962 4.391-.161 1.038-84.006 118.088-87.639 122.345l-2.06 2.414-5.213-8.879C75.238 159.249 51.68 136.966 21.5 120.484l-7-3.822 11.598 12.06c23.51 24.448 41.052 52.238 54.259 85.962 4.164 10.635 10.342 30.581 11.272 36.395.351 2.199.998 3.868 1.436 3.71.438-.159 30.798-36.964 67.467-81.789 36.668-44.825 67.036-81.637 67.484-81.805.448-.168 4.059 1.328 8.024 3.325l7.209 3.631-.597-7.326c-.328-4.029-.891-14.525-1.25-23.325-.36-8.8-.789-17.575-.955-19.5-.165-1.925-.333-7.437-.374-12.25-.052-6.305-.422-8.744-1.323-8.73-.687.011-16.437 7.763-35 17.227M77 93.994v54.993l6.832 6.757c4.181 4.134 7.911 8.984 9.612 12.496 1.529 3.156 3.159 5.505 3.622 5.219.463-.286 4.687-6.1 9.388-12.92L115 148.138V39H77v54.994M33.012 92.25l.012 22.25 5.915 3.249c3.253 1.787 10.517 6.737 16.141 11a3591.946 3591.946 0 0 0 12.073 9.123c1.787 1.327 1.847.241 1.847-33.25V70H33l.012 22.25" fill="#1976D2" fill-rule="evenodd"/><path fill-opacity=".63" d="m132.75.796-6.75.295V138.332l3.784-5.416c2.081-2.979 10.068-14.866 17.75-26.416l13.966-21L161 43 160.5.5H150c-5.775 0-13.537.133-17.25.296M78 95.284v55.285l2.96 1.748c3.944 2.33 9.147 8.87 12.711 15.979l2.906 5.796 9.211-13.221L115 147.65V40H78v55.284m-45-3.439v21.846l8.292 5.067c4.561 2.787 12.661 8.482 18 12.656L69 139.003V70H33v21.845" fill="#1976D2" fill-rule="evenodd"/></svg>